<svg xmlns="http://www.w3.org/2000/svg" xmlns:xlink="http://www.w3.org/1999/xlink" width="2000" zoomAndPan="magnify" viewBox="0 0 1500 1499.999933" height="2000" preserveAspectRatio="xMidYMid meet" version="1.0"><defs><g/><clipPath id="7e959adc09"><rect x="0" width="770" y="0" height="1500"/></clipPath><clipPath id="c57b1a2dda"><rect x="0" width="369" y="0" height="684"/></clipPath></defs><rect x="-150" width="1800" fill="#ffffff" y="-149.999993" height="1799.99992" fill-opacity="1"/><rect x="-150" width="1800" fill="#ffffff" y="-149.999993" height="1799.99992" fill-opacity="1"/><g transform="matrix(1, 0, 0, 1, 309, 0.000000000000112861)"><g clip-path="url(#7e959adc09)"><g fill="#000000" fill-opacity="1"><g transform="translate(0.248737, 1236.297315)"><g><path d="M 73.859375 6.96875 C 61.785156 6.96875 52.03125 5.804688 44.59375 3.484375 C 37.164062 1.160156 33.453125 -2.785156 33.453125 -8.359375 C 33.453125 -19.503906 48.78125 -27.867188 79.4375 -33.453125 C 114.738281 -39.953125 140.515625 -50.632812 156.765625 -65.5 C 173.023438 -80.363281 181.15625 -104.984375 181.15625 -139.359375 L 181.15625 -727.4375 C 181.15625 -769.25 175.8125 -801.300781 165.125 -823.59375 C 154.445312 -845.894531 131.457031 -860.296875 96.15625 -866.796875 C 80.363281 -869.585938 68.75 -873.300781 61.3125 -877.9375 C 53.882812 -882.582031 50.171875 -888.160156 50.171875 -894.671875 C 50.171875 -900.242188 53.882812 -904.191406 61.3125 -906.515625 C 68.75 -908.835938 78.503906 -910 90.578125 -910 C 115.660156 -910 134.472656 -910 147.015625 -910 C 159.554688 -910 171.398438 -909.765625 182.546875 -909.296875 C 193.703125 -908.835938 208.570312 -908.609375 227.15625 -908.609375 C 245.726562 -908.609375 264.535156 -909.300781 283.578125 -910.6875 C 302.628906 -912.082031 320.515625 -913.476562 337.234375 -914.875 C 353.960938 -916.269531 368.832031 -916.96875 381.84375 -916.96875 C 487.75 -916.96875 572.984375 -895.132812 637.546875 -851.46875 C 702.117188 -807.800781 734.40625 -746.945312 734.40625 -668.90625 C 734.40625 -612.238281 723.253906 -559.976562 700.953125 -512.125 C 678.660156 -464.28125 644.519531 -425.957031 598.53125 -397.15625 C 552.539062 -368.363281 493.78125 -353.96875 422.25 -353.96875 C 401.8125 -353.96875 386.25 -356.984375 375.5625 -363.015625 C 364.882812 -369.054688 359.546875 -374.863281 359.546875 -380.4375 C 359.546875 -384.15625 362.097656 -388.335938 367.203125 -392.984375 C 372.316406 -397.628906 377.195312 -399.953125 381.84375 -399.953125 C 386.476562 -399.953125 393.671875 -399.488281 403.421875 -398.5625 C 413.179688 -397.632812 427.351562 -397.171875 445.9375 -397.171875 C 501.675781 -397.171875 543.710938 -420.394531 572.046875 -466.84375 C 600.390625 -513.289062 614.5625 -577.394531 614.5625 -659.15625 C 614.5625 -733.476562 592.726562 -788.519531 549.0625 -824.28125 C 505.394531 -860.050781 449.65625 -877.9375 381.84375 -877.9375 C 355.820312 -877.9375 334.445312 -873.523438 317.71875 -864.703125 C 301 -855.878906 292.640625 -840.785156 292.640625 -819.421875 L 292.640625 -154.6875 C 292.640625 -121.238281 299.609375 -94.296875 313.546875 -73.859375 C 327.484375 -53.421875 351.640625 -39.953125 386.015625 -33.453125 C 401.804688 -30.660156 413.414062 -27.40625 420.84375 -23.6875 C 428.28125 -19.96875 432 -14.859375 432 -8.359375 C 432 -2.785156 428.28125 1.160156 420.84375 3.484375 C 413.414062 5.804688 403.664062 6.96875 391.59375 6.96875 C 366.507812 6.96875 347.226562 6.035156 333.75 4.171875 C 320.28125 2.316406 308.203125 0.695312 297.515625 -0.6875 C 286.835938 -2.082031 272.671875 -2.78125 255.015625 -2.78125 C 231.796875 -2.78125 211.125 -2.082031 193 -0.6875 C 174.882812 0.695312 156.769531 2.316406 138.65625 4.171875 C 120.539062 6.035156 98.941406 6.96875 73.859375 6.96875 Z M 73.859375 6.96875 "/></g></g></g></g></g><g transform="matrix(1, 0, 0, 1, 825, 721)"><g clip-path="url(#c57b1a2dda)"><g fill="#000000" fill-opacity="1"><g transform="translate(2.99715, 525.321219)"><g><path d="M 14.15625 2.625 C 9.613281 2.625 5.941406 2.007812 3.140625 0.78125 C 0.347656 -0.4375 -1.046875 -2.09375 -1.046875 -4.1875 C -1.046875 -6.632812 0.4375 -8.816406 3.40625 -10.734375 C 6.375 -12.660156 10.65625 -14.5 16.25 -16.25 C 25.332031 -19.039062 33.71875 -23.234375 41.40625 -28.828125 C 49.09375 -34.421875 55.734375 -43.679688 61.328125 -56.609375 C 71.109375 -78.972656 80.101562 -99.9375 88.3125 -119.5 C 96.53125 -139.070312 104.304688 -158.289062 111.640625 -177.15625 C 118.984375 -196.03125 126.585938 -215.6875 134.453125 -236.125 C 142.316406 -256.570312 150.613281 -278.851562 159.34375 -302.96875 C 161.09375 -307.863281 162.664062 -312.753906 164.0625 -317.640625 C 165.457031 -322.535156 166.332031 -327.78125 166.6875 -333.375 C 169.832031 -334.425781 172.976562 -335.472656 176.125 -336.515625 C 179.269531 -337.566406 182.414062 -339.140625 185.5625 -341.234375 C 188.707031 -343.328125 190.890625 -346.472656 192.109375 -350.671875 C 193.328125 -354.867188 194.460938 -357.664062 195.515625 -359.0625 C 195.867188 -359.40625 196.304688 -359.578125 196.828125 -359.578125 C 197.347656 -359.578125 197.785156 -359.226562 198.140625 -358.53125 C 198.835938 -357.132812 199.445312 -355.382812 199.96875 -353.28125 C 200.488281 -351.1875 201.101562 -349.09375 201.8125 -347 C 210.195312 -320.445312 218.929688 -293.363281 228.015625 -265.75 C 237.097656 -238.144531 245.921875 -211.5 254.484375 -185.8125 C 263.046875 -160.132812 270.90625 -137.070312 278.0625 -116.625 C 285.226562 -96.1875 290.910156 -79.675781 295.109375 -67.09375 C 300.003906 -53.113281 305.242188 -42.628906 310.828125 -35.640625 C 316.421875 -28.648438 322.273438 -23.757812 328.390625 -20.96875 C 334.503906 -18.175781 341.054688 -16.078125 348.046875 -14.671875 C 353.992188 -13.628906 358.363281 -11.972656 361.15625 -9.703125 C 363.945312 -7.429688 365.34375 -5.070312 365.34375 -2.625 C 365.34375 -0.519531 363.945312 0.878906 361.15625 1.578125 C 358.363281 2.273438 354.691406 2.625 350.140625 2.625 C 345.253906 2.625 338.613281 2.359375 330.21875 1.828125 C 321.832031 1.304688 312.921875 0.78125 303.484375 0.25 C 294.054688 -0.269531 285.320312 -0.53125 277.28125 -0.53125 C 270.644531 -0.53125 263.832031 -0.53125 256.84375 -0.53125 C 249.851562 -0.53125 243.382812 -0.441406 237.4375 -0.265625 C 231.5 -0.0859375 226.4375 0 222.25 0 C 217.707031 0 214.035156 -0.519531 211.234375 -1.5625 C 208.441406 -2.613281 207.046875 -4.191406 207.046875 -6.296875 C 207.046875 -8.734375 208.789062 -10.828125 212.28125 -12.578125 C 215.78125 -14.328125 219.800781 -15.550781 224.34375 -16.25 C 235.875 -18 244.082031 -20.96875 248.96875 -25.15625 C 253.863281 -29.351562 256.3125 -34.25 256.3125 -39.84375 C 256.3125 -45.082031 255.175781 -52.679688 252.90625 -62.640625 C 250.632812 -72.597656 247.925781 -83.253906 244.78125 -94.609375 C 241.644531 -105.972656 238.675781 -116.019531 235.875 -124.75 C 235.175781 -127.550781 233.863281 -129.210938 231.9375 -129.734375 C 230.019531 -130.253906 226.613281 -130.515625 221.71875 -130.515625 L 122.65625 -130.515625 C 121.257812 -130.515625 119.773438 -129.898438 118.203125 -128.671875 C 116.628906 -127.453125 115.144531 -124.921875 113.75 -121.078125 C 112.695312 -117.585938 110.945312 -112.082031 108.5 -104.5625 C 106.050781 -97.050781 103.601562 -89.101562 101.15625 -80.71875 C 98.71875 -72.332031 96.625 -64.816406 94.875 -58.171875 C 93.125 -51.535156 92.25 -47.347656 92.25 -45.609375 C 92.25 -37.921875 95.21875 -31.539062 101.15625 -26.46875 C 107.101562 -21.40625 114.269531 -17.820312 122.65625 -15.71875 C 134.1875 -12.570312 139.953125 -9.078125 139.953125 -5.234375 C 139.953125 -3.140625 138.550781 -1.65625 135.75 -0.78125 C 132.957031 0.09375 129.289062 0.53125 124.75 0.53125 C 120.207031 0.53125 113.566406 0.351562 104.828125 0 C 96.097656 -0.351562 86.835938 -0.53125 77.046875 -0.53125 C 65.515625 -0.53125 54.332031 -0.00390625 43.5 1.046875 C 32.664062 2.097656 22.882812 2.625 14.15625 2.625 Z M 136.8125 -147.8125 L 218.0625 -147.8125 C 222.945312 -147.8125 225.390625 -148.6875 225.390625 -150.4375 C 225.390625 -151.132812 225.300781 -151.921875 225.125 -152.796875 C 224.957031 -153.671875 224.695312 -154.628906 224.34375 -155.671875 L 183.453125 -283.578125 C 181.359375 -289.867188 179.789062 -293.015625 178.75 -293.015625 C 178.039062 -293.015625 176.640625 -290.039062 174.546875 -284.09375 L 126.84375 -155.671875 C 126.144531 -153.578125 125.796875 -152.179688 125.796875 -151.484375 C 125.796875 -149.734375 126.753906 -148.679688 128.671875 -148.328125 C 130.597656 -147.984375 133.3125 -147.8125 136.8125 -147.8125 Z M 136.8125 -147.8125 "/></g></g></g></g></g></svg>
